<svg xmlns="http://www.w3.org/2000/svg" width="512" height="512" viewBox="0 0 512 512"><rect width="512" height="512" fill="#1B1BD1"/><g transform="scale(4.7407407407407405,4.7407407407407405)" fill="#FFFFFF"><path d="M32.989364101143295 38.658374189910006 34.59544027887545 43.65213017422474 38.097212928684904 38.95677085681106Q38.27274037980317 38.7198087978014 38.36928047791822 38.64959781735409Q38.465820576033266 38.579386836906785 38.57991341926014 38.579386836906785Q38.694006262487015 38.579386836906785 38.79932273315798 38.645209631076135Q38.904639203828935 38.711032425245484 39.07139028239129 38.95677085681106L42.336200873191075 43.59947193888925L43.915947933255495 38.658374189910006H48.93603303523796L44.354766561051164 52.31440988691127Q44.21434460015655 52.744452142151026 43.92911249208937 52.96824964232682Q43.64388038402218 53.19204714250261 43.31037822689747 53.19204714250261Q42.62582116753622 53.19204714250261 42.072909696513676 52.38462086735858L38.14987116402038 46.72386056879443L33.92843596462603 52.402173612470406Q33.66514478794863 52.75322851470694 33.344807189657786 52.955085083492946Q33.02446959136695 53.15694165227896 32.69974380679815 53.15694165227896Q32.375018022229355 53.15694165227896 32.08978591416217 52.950696897214996Q31.804553806094987 52.744452142151026 31.62902635497672 52.279304396687614L26.69670497855338 38.658374189910006Z"/><path d="M56.06244755063965 52.67424116170372H50.60354382086151V38.658374189910006H56.06244755063965Z"/><path d="M58.002025885496515 48.022763707069615Q58.054684120832 48.03154007962553 58.49789093490563 48.1763502267981Q58.94109774897925 48.32116037397067 59.572996573005014 48.50107601136689Q60.20489539703078 48.68099164876312 60.8411824073345 48.817025423379775Q61.477469417638225 48.95305919799643 61.92506441798981 48.95305919799643Q62.31122481045 48.95305919799643 62.55696324201558 48.83896635476955Q62.802701673581154 48.72487351154268 62.802701673581154 48.41770047208571Q62.802701673581154 48.08419831496101 62.45164677134461 47.81213076572769Q62.10059186910808 47.540063216494374 61.5520685843635 47.25044292214923Q61.00354529961891 46.96082262780409 60.38481103442701 46.59221498045572Q59.76607676923511 46.22360733310736 59.21755348449052 45.70580135230847Q58.66903019974594 45.18799537150958 58.317975297509406 44.463944635646726Q57.966920395272865 43.739893899783866 57.966920395272865 42.73061105585383Q57.966920395272865 41.493142525470034 58.484726376071755 40.637446201268475Q59.002532356870645 39.78174987706692 59.875781426184034 39.25955570999007Q60.749030495497415 38.73736154291322 61.84168887870864 38.500399483903564Q62.934347261919854 38.2634374248939 64.0840520667445 38.2634374248939Q65.0582294204509 38.2634374248939 65.92709030348632 38.368753895564865Q66.79595118652176 38.47407036623582 67.39713270660182 38.59693958201861Q67.99831422668188 38.7198087978014 68.15628893268834 38.76369066058096V42.79204566374522Q68.15628893268834 42.79204566374522 67.79206947161794 42.713058310742Q67.42785001054752 42.63407095773878 66.87932672580294 42.53753085962373Q66.33080344105835 42.44099076150869 65.7471746660901 42.362003408505466Q65.16354589112186 42.283016055502245 64.72472726332619 42.283016055502245Q64.32101412575417 42.283016055502245 64.11915755696816 42.42343801639686Q63.917300988182156 42.56385997729147 63.917300988182156 42.75694017352156Q63.917300988182156 42.914914879528006 64.09282843930042 43.10360688948015Q64.26835589041869 43.29229889943228 64.51409432198427 43.397615370103246Q65.43561344035518 43.801328507675265 66.25181608805514 44.222594390359106Q67.06801873575507 44.64386027304295 67.69114118722493 45.196771744065494Q68.31426363869477 45.74968321508804 68.66970672720927 46.5439449313982Q69.02514981572376 47.33820664770837 69.02514981572376 48.48791145253302Q69.02514981572376 49.85702557125551 68.33620457008456 50.87508478774147Q67.64725932444536 51.89314400422742 66.35274437244813 52.45483184780588Q65.0582294204509 53.01651969138434 63.23274392882091 53.01651969138434Q61.66177324131241 53.01651969138434 60.64371402482645 52.86732135793381Q59.6256548083405 52.71812302448328 59.04641421965022 52.52943101453114Q58.46717363095993 52.34073900457901 58.23459975822822 52.19154067112848Q58.002025885496515 52.04234233767795 58.002025885496515 52.04234233767795Z"/><path d="M70.89451717013331 38.658374189910006H80.99612198198965V42.69550556563017H76.35342089991146V43.84521037045483H80.97856923687782V47.28554841237288H76.35342089991146V48.61078066831581H81.30329502144662V52.67424116170372H70.89451717013331Z"/><path d="M16.902273206154014 54.98348030861566Q19.35088114925386 54.98348030861566 20.873581787704836 55.56272089730595Q22.39628242615581 56.141961485996234 23.107168603184796 57.39698276149185Q23.818054780213785 58.652004036987464 23.818054780213785 60.69689884251529Q23.818054780213785 62.06601296123778 23.30463698569285 63.202553207228576Q22.791219191171912 64.33909345321936 21.88725281791283 65.16407247347522Q20.98328644465375 65.98905149373108 19.78531159077157 66.44103468036062Q18.58733673688939 66.89301786699016 17.218222618166898 66.89301786699016Q16.867167715930364 66.89301786699016 16.494171882304045 66.87546512187834Q16.12117604867772 66.8579123767665 15.656028303214313 66.8579123767665V69.39428404542548H9.925057024202856V55.413522563855416Q11.969951829730679 55.21166599506941 13.698897223245622 55.09757315184254Q15.427842616760564 54.98348030861566 16.902273206154014 54.98348030861566ZM17.832568697080838 58.62567491931972Q17.525395657623868 58.62567491931972 17.143623451441634 58.78364962532616Q16.7618512452594 58.941624331332605 16.415184529300824 59.14786908639657Q16.068517813342243 59.35411384146054 15.844720313166452 59.51208854746698Q15.620922812990658 59.67006325347342 15.620922812990658 59.67006325347342V62.97875570705278L16.64775840203253 62.478502471365715Q17.534172030179782 62.03968384357004 18.179235413039418 61.3946204607104Q18.824298795899054 60.74955707785077 18.824298795899054 59.7227214888089Q18.824298795899054 59.28390286101323 18.56539580549961 58.954788890166476Q18.306492815100164 58.62567491931972 17.832568697080838 58.62567491931972Z"/><path d="M32.647085571462675 69.7365625751061Q31.163878609513308 69.7365625751061 29.772823559401033 69.21436840802926Q28.381768509288754 68.69217424095241 27.27155738096571 67.71799688724602Q26.161346252642662 66.74381953353964 25.51189468350507 65.3790936010951Q24.86244311436748 64.01436766865056 24.86244311436748 62.32930413791519Q24.86244311436748 60.67934609740347 25.472401007003462 59.3277847237928Q26.082358899639445 57.97622335018213 27.161852724016793 57.00204599647574Q28.24134654839414 56.027868642769356 29.649954343618244 55.50567447569251Q31.058562138842348 54.98348030861566 32.647085571462675 54.98348030861566Q34.314596357086224 54.98348030861566 35.75830964253397 55.48812173058069Q37.20202292798173 55.992763152545706 38.28590493863704 56.95377594741822Q39.36978694929235 57.91478874229074 39.97974484192833 59.28829104729119Q40.58970273456431 60.66179335229164 40.58970273456431 62.399515118362494Q40.58970273456431 64.08457864909786 39.94902753798263 65.44052820898648Q39.30835234140095 66.7964777688751 38.193753026799946 67.75310237746967Q37.079153712198945 68.70972698606424 35.65299317186302 69.22314478058517Q34.22683263152709 69.7365625751061 32.647085571462675 69.7365625751061ZM32.032739492548735 65.17284884603113Q32.49788723801215 65.17284884603113 33.02446959136695 64.7208656594016Q33.551051944721756 64.26888247277205 34.01619969018516 63.566772668298974Q34.48134743564857 62.8646628638259 34.77535591627168 62.0835657063496Q35.06936439689478 61.302468548873314 35.06936439689478 60.64424060717981Q35.06936439689478 60.02989452826587 34.74463861232598 59.62618139069386Q34.41991282775718 59.22246825312184 33.647592042836806 59.22246825312184Q33.17366792481748 59.22246825312184 32.633921012628804 59.665675067195465Q32.09417410044013 60.10888188126909 31.62463816869876 60.8066034994642Q31.155102236957394 61.50432511765932 30.856705570056338 62.28103408885766Q30.558308903155282 63.057743060056 30.558308903155282 63.7159710017495Q30.558308903155282 64.34786982577526 30.89619924655795 64.76035933590319Q31.234089589960615 65.17284884603113 32.032739492548735 65.17284884603113Z"/><path d="M53.65772147031938 68.98179453529755Q51.788354115909826 69.7365625751061 49.611813722043294 69.7365625751061Q48.119830387538016 69.7365625751061 46.71999896486983 69.28019120219861Q45.32016754220164 68.82381982929111 44.209956413878594 67.94618257369976Q43.09974528555555 67.06854531810842 42.445905530139996 65.78719492494506Q41.79206577472445 64.5058445317817 41.79206577472445 62.85588649126999Q41.79206577472445 61.10938835264322 42.410800039916346 59.665675067195465Q43.02953430510824 58.22196178174771 44.17046273737698 57.17318526131606Q45.311391169645724 56.124408740884405 46.87358548459831 55.55394452475004Q48.4357797995509 54.98348030861566 50.3314762716282 54.98348030861566Q50.68253117386473 54.98348030861566 51.22227808605341 55.01858579883931Q51.76202499824208 55.05369128906297 52.341265586932366 55.14584320090006Q52.92050617562265 55.23799511273715 53.38565392108606 55.413522563855416V59.942130802706735Q52.80641333239578 59.7227214888089 52.20084362603775 59.7227214888089Q51.29687725277867 59.7227214888089 50.533332840414204 60.16592830288253Q49.769788428049736 60.60913511695615 49.31341705514224 61.35512678420879Q48.85704568223474 62.10111845146144 48.85704568223474 63.01386119727643Q48.85704568223474 63.91782757053551 49.20810058447128 64.42685717877849Q49.559155486707816 64.93588678702147 50.24371254606906 64.93588678702147Q50.515780095302375 64.93588678702147 50.89316411520665 64.84812306146233Q51.27054813511093 64.7603593359032 51.924387890526475 64.40930443366666Q52.57822764594203 64.05824953143012 53.65772147031938 63.26837600139792Z"/><path d="M61.28438922140813 55.378417073631766V59.687615998585244L64.66329265543479 55.378417073631766H70.3591584442226L65.83055020537128 61.28491580376149L71.06126824869567 69.39428404542548H64.66329265543479L61.73198422175971 64.4356335513344L61.40725843719092 65.00609776746877V69.39428404542548H55.72894539351494V55.378417073631766Z"/><path d="M72.89553011288157 55.378417073631766H82.9971349247379V59.41554844935193H78.35443384265972V60.56525325417659H82.97958217962608V64.00559129609465H78.35443384265972V65.33082355203757H83.30430796419488V69.39428404542548H72.89553011288157Z"/><path d="M84.80506767125607 55.378417073631766H98.07494297579714V59.924578057594914H94.16945718841568V69.39428404542548H88.71055345863753V59.924578057594914H84.80506767125607Z"/></g></svg>